<?xml version="1.0" encoding="UTF-8" standalone="no"?>
<!-- Created with Inkscape (http://www.inkscape.org/) -->

<svg
   version="1.1"
   id="svg1"
   width="302.67999"
   height="338.03333"
   viewBox="0 0 302.67999 338.03333"
   xmlns="http://www.w3.org/2000/svg"
   xmlns:svg="http://www.w3.org/2000/svg">
  <defs
     id="defs1">
    <clipPath
       clipPathUnits="userSpaceOnUse"
       id="clipPath9">
      <path
         d="M 1091,1290 H 14224 V 24477 H 1091 V 1290"
         transform="matrix(0,-1,-1,0,15656,9899.0001)"
         id="path9" />
    </clipPath>
    <clipPath
       clipPathUnits="userSpaceOnUse"
       id="clipPath11">
      <path
         d="M 1091,1290 H 14224 V 24477 H 1091 V 1290"
         transform="matrix(0,-1,-1,0,18121,8343.0001)"
         id="path11" />
    </clipPath>
    <clipPath
       clipPathUnits="userSpaceOnUse"
       id="clipPath13">
      <path
         d="M 1091,1290 H 14224 V 24477 H 1091 V 1290"
         transform="matrix(0,-1,-1,0,18537,6389.0001)"
         id="path13" />
    </clipPath>
  </defs>
  <g
     id="layer-oc1"
     transform="translate(-234.36,-385.49999)">
    <path
       id="path1"
       d="M 10086,17900 V 12414 H 7000 v 5486 h 3086"
       style="fill:none;stroke:#000000;stroke-width:24;stroke-linecap:round;stroke-linejoin:round;stroke-miterlimit:10;stroke-dasharray:none;stroke-opacity:1"
       transform="matrix(0,-0.04,-0.04,0,992,797.33333)" />
    <path
       id="path2"
       d="M 10086,12414 V 11386 H 7000 v 1028 h 3086"
       style="fill:none;stroke:#000000;stroke-width:24;stroke-linecap:round;stroke-linejoin:round;stroke-miterlimit:10;stroke-dasharray:none;stroke-opacity:1"
       transform="matrix(0,-0.04,-0.04,0,992,797.33333)" />
    <path
       id="path3"
       d="m 10086,17900 v 1029 H 7000 v -1029 h 3086"
       style="fill:none;stroke:#000000;stroke-width:24;stroke-linecap:round;stroke-linejoin:round;stroke-miterlimit:10;stroke-dasharray:none;stroke-opacity:1"
       transform="matrix(0,-0.04,-0.04,0,992,797.33333)" />
    <path
       id="path4"
       d="M 7000,17900 V 12414 H 5972 v 5486 h 1028"
       style="fill:none;stroke:#000000;stroke-width:24;stroke-linecap:round;stroke-linejoin:round;stroke-miterlimit:10;stroke-dasharray:none;stroke-opacity:1"
       transform="matrix(0,-0.04,-0.04,0,992,797.33333)" />
    <path
       id="path5"
       d="M 5972,17900 V 12414 H 4943 v 5486 h 1029"
       style="fill:none;stroke:#000000;stroke-width:24;stroke-linecap:round;stroke-linejoin:round;stroke-miterlimit:10;stroke-dasharray:none;stroke-opacity:1"
       transform="matrix(0,-0.04,-0.04,0,992,797.33333)" />
    <path
       id="path6"
       d="M 4943,17900 H 1857 v 1029 H 4943 V 17900 12414 H 1857 v 5486 h 3086"
       style="fill:none;stroke:#000000;stroke-width:24;stroke-linecap:round;stroke-linejoin:round;stroke-miterlimit:10;stroke-dasharray:none;stroke-opacity:1"
       transform="matrix(0,-0.04,-0.04,0,992,797.33333)" />
    <path
       id="path7"
       d="M 4943,12414 V 11386 H 1857 v 1028 h 3086"
       style="fill:none;stroke:#000000;stroke-width:24;stroke-linecap:round;stroke-linejoin:round;stroke-miterlimit:10;stroke-dasharray:none;stroke-opacity:1"
       transform="matrix(0,-0.04,-0.04,0,992,797.33333)" />
    <path
       id="path8"
       d="M 451.99609,-247.61458 H 321.52734 v 16.79687 h 84.76563 V -72.223958 H 198.87109 V -230.81771 h 86.32813 v -16.79687 H 159.80859 v -18.35938 h -33.59375 v 50 l 15.23438,-10.9375 c 18.16406,16.40625 33.20312,38.28125 44.92187,65.625 l -29.6875,24.60938 c -9.375,-27.05078 -19.53125,-45.11719 -30.46875,-54.29688 V 34.416667 H 89.496094 V -166.36458 c -11.523438,28.90625 -27.929688,56.93359 -49.21875,83.984372 L 12.542969,-105.81771 c 37.988281,-49.21875 62.988281,-102.53906 75,-160.15625 h -55.46875 v -34.76562 h 57.421875 v -92.57813 h 36.718746 v 92.57813 h 46.09375 v 18.35937 h 67.96875 v -30.07812 h -49.21875 v -35.15625 h 49.21875 v -41.40625 h 36.71875 v 41.40625 h 53.51563 v -41.40625 h 36.32812 v 41.40625 h 51.17188 v 35.15625 h -51.17188 v 30.07812 h 85.15625 z m -121.48437,-34.76563 v -30.07812 h -53.51563 v 30.07812 z m 41.01562,112.5 v -26.17187 h -50 v 26.17187 z m -86.32812,0 v -26.17187 h -50 v 26.17187 z m 86.32812,62.5 v -29.6875 h -50 v 29.6875 z m -86.32812,0 v -29.6875 h -50 v 29.6875 z m 0,56.640627 C 252.875,-12.458333 215.66797,14.299479 173.48047,29.729167 L 146.52734,3.9479167 C 186.07813,-9.8216146 222.30859,-32.86849 255.12109,-65.192708 Z M 443.01172,6.6822917 417.23047,29.729167 C 396.13672,6.2916667 364.30078,-19.098958 321.91797,-46.442708 l 24.60937,-17.96875 c 36.91407,18.261718 69.14063,41.992187 96.48438,71.0937497 z M 668.10938,-110.50521 c 0,9.17969 -2.53907,16.601564 -7.42188,22.265627 -4.6875,5.761718 -10.74219,8.984375 -17.96875,9.765625 -7.03125,0.78125 -16.30859,1.464843 -27.73437,1.953125 l -5.07813,-25.781247 V 32.854167 h -35.9375 V -267.14583 H 556.39063 V -66.755208 H 519.67188 V -301.91146 h 54.29687 v -94.92187 h 36.32813 v 94.92187 h 57.8125 z m -36.32813,-12.5 v -144.14062 h -21.48437 v 154.6875 c 14.25781,1.07422 21.48437,-2.44141 21.48437,-10.54688 z M 921.625,-340.97396 H 658.73438 v -35.15625 H 921.625 Z m -41.40625,125.39063 h -175 v -106.64063 h 175 z m -36.32812,-34.76563 v -37.10937 H 741.54688 v 37.10937 z M 899.35938,31.291667 H 863.03125 V 2.7760417 H 720.84375 V 32.854167 H 684.51563 V -191.75521 H 899.35938 Z M 863.03125,-113.23958 v -43.75 h -52.73437 v 43.75 z m -89.0625,0 v -43.75 h -53.125 v 43.75 z m 89.0625,81.249997 v -46.484375 h -52.73437 v 46.484375 z m -89.0625,0 v -46.484375 h -53.125 v 46.484375 z m 0,0"
       style="fill:#000000;fill-opacity:1;fill-rule:nonzero;stroke:none"
       aria-label="横幅"
       transform="matrix(0.04,0,0,0.04,365.76,401.37333)"
       clip-path="url(#clipPath9)" />
    <path
       id="path10"
       d="M 438.67578,-322.65755 H 48.832031 V -357.8138 H 221.09766 v -38.67188 h 36.71875 v 38.67188 h 180.85937 z m -81.25,117.1875 h -235.9375 v -96.48438 h 235.9375 z m -36.71875,-61.71875 h -162.5 v 26.95312 h 162.10938 z m 95.70313,251.171873 c 0,28.613281 -16.60157,42.96875 -49.60938,42.96875 h -37.5 l -10.15625,-37.109375 36.32813,1.9531249 c 16.11328,1.0742188 24.21875,-5.1757809 24.21875,-18.7499999 V -151.17318 H 99.613281 V 32.029948 H 62.503906 V -186.32943 H 416.41016 Z M 333.20703,-28.126302 H 143.75391 V -128.90755 h 189.45312 z m -36.32812,-65.625 H 180.08203 v 30.46875 H 296.48828 Z M 868.85156,-273.82943 c -43.26172,11.71875 -80.46875,20.60547 -111.71875,26.5625 16.40625,28.71094 38.28125,60.44922 65.625,95.3125 l -28.90625,22.26563 c -31.05468,-10.35156 -60.74218,-15.625 -89.0625,-15.625 -31.83593,0 -57.22656,4.88281 -76.17187,14.45312 -19.04297,9.375 -28.51563,22.5586 -28.51563,39.453128 0,17.480469 9.57032,32.421875 28.90625,44.921875 19.53125,12.304687 45.70313,18.359375 78.51563,18.359375 39.84375,0 79.49219,-8.300781 119.14062,-25 l 17.96875,41.796875 c -40.42968,17.3828124 -85.35156,26.171875 -134.76562,26.171875 -46.38672,0 -83.59375,-9.9609376 -111.71875,-29.6875 -27.92969,-19.726563 -41.79688,-45.410156 -41.79688,-76.953125 0,-19.726563 6.25,-36.914063 18.75,-51.562503 12.5,-14.55078 30.27344,-25.78125 53.51563,-33.59375 23.14453,-7.8125 48.53515,-11.71875 76.17187,-11.71875 15.33203,0 29.29688,1.46485 41.79688,4.29688 -14.64844,-20.3125 -26.07422,-37.98828 -34.375,-53.125 -53.90625,10.9375 -112.10938,18.16406 -174.60938,21.48437 l -11.71875,-45.70312 c 5.95703,0.29297 15.23438,0.39062 27.73438,0.39062 40.33203,0 86.13281,-5.27343 137.5,-16.01562 -16.40625,-31.73828 -29.58985,-60.35156 -39.45313,-85.9375 l 45.70313,-14.45313 c 9.375,28.125 22.65625,58.59375 39.84375,91.40625 41.11328,-7.8125 80.95703,-18.16406 119.53125,-31.25 z m 0,0"
       style="fill:#000000;fill-opacity:1;fill-rule:nonzero;stroke:none"
       aria-label="高さ"
       transform="matrix(0.04,0,0,0.04,267.16,463.61333)"
       clip-path="url(#clipPath11)" />
    <path
       id="path12"
       d="M 434.75391,-352.34115 H 102.33203 v 204.6875 c 0,44.53125 -4.296874,79.980473 -12.890624,106.250004 -8.398437,26.367188 -20.605468,50.4882814 -36.71875,72.65625 L 23.816406,4.6901042 c 27.050782,-42.3828122 40.625,-90.0390622 40.625,-142.9687542 V -387.4974 H 434.75391 Z m -41.79688,173.82813 H 135.53516 v -150.39063 h 257.42187 z m -35.9375,-93.35938 v -21.875 H 171.86328 v 21.875 z m 0,58.20313 v -23.4375 H 171.86328 v 23.4375 z m 92.96875,157.421874 H 300.37891 v 48.4375002 c 0,11.71875 -4.88282,20.4101558 -14.45313,26.1718748 -9.375,5.957031 -19.53125,8.984375 -30.46875,8.984375 h -42.96875 l -10.54687,-34.7656248 43.35937,1.171875 c 12.20703,0 18.35938,-4.4921872 18.35938,-13.6718752 V -56.247396 H 105.06641 v -34.765625 h 158.59375 v -14.843749 c 19.72656,-4.6875 39.25781,-11.13281 58.59375,-19.53125 H 144.51953 v -35.15625 h 253.125 v 30.85937 c -25.29297,15.13672 -52.14844,28.02735 -80.46875,38.671879 h 132.8125 z M 868.83594,-273.82552 c -43.26172,11.71875 -80.46875,20.60547 -111.71875,26.5625 16.40625,28.71094 38.28125,60.44922 65.625,95.3125 l -28.90625,22.26562 c -31.05469,-10.35156 -60.74219,-15.625 -89.0625,-15.625 -31.83594,0 -57.22656,4.88282 -76.17188,14.45313 -19.04297,9.375 -28.51562,22.55859 -28.51562,39.453124 0,17.480469 9.57031,32.421875 28.90625,44.921875 19.53125,12.304688 45.70312,18.359375 78.51562,18.359375 39.84375,0 79.49219,-8.300781 119.14063,-25 l 17.96875,41.796875 C 804.1875,6.0572917 759.26563,14.846354 709.85156,14.846354 c -46.38672,0 -83.59375,-9.9609373 -111.71875,-29.6875 -27.92968,-19.726562 -41.79687,-45.410156 -41.79687,-76.953125 0,-19.726559 6.25,-36.914059 18.75,-51.562499 12.5,-14.55078 30.27344,-25.78125 53.51562,-33.59375 23.14453,-7.8125 48.53516,-11.71875 76.17188,-11.71875 15.33203,0 29.29687,1.46484 41.79687,4.29687 -14.64843,-20.3125 -26.07422,-37.98828 -34.375,-53.125 -53.90625,10.9375 -112.10937,18.16407 -174.60937,21.48438 l -11.71875,-45.70313 c 5.95703,0.29297 15.23437,0.39063 27.73437,0.39063 40.33203,0 86.13282,-5.27344 137.5,-16.01563 -16.40625,-31.73828 -29.58984,-60.35156 -39.45312,-85.9375 l 45.70312,-14.45312 c 9.375,28.125 22.65625,58.59375 39.84375,91.40625 41.11328,-7.8125 80.95703,-18.16406 119.53125,-31.25 z M 1091.1992,-342.96615 991.98047,11.330729 H 957.99609 L 1057.2148,-342.96615 Z M 1332.9961,0.00260417 H 1106.043 c 0,-19.23828117 6.6406,-38.76953117 19.9218,-58.59375017 13.4766,-19.726562 38.7696,-44.628904 75.7813,-74.609374 22.6562,-17.96875 42.7734,-36.81641 60.5469,-56.64063 17.6758,-20.01953 26.5625,-40.03906 26.5625,-60.15625 0,-17.1875 -6.1524,-31.34765 -18.3594,-42.57812 -12.3047,-11.42578 -27.6367,-17.1875 -46.0938,-17.1875 -19.0429,0 -34.9609,5.85937 -47.6562,17.57812 -12.793,11.52344 -19.3359,28.8086 -19.5313,51.95313 l -42.9687,-5.07813 c 2.5391,-32.03125 13.8672,-56.44531 33.9844,-73.4375 20.3125,-17.1875 45.8984,-25.78125 76.9531,-25.78125 33.5937,0 59.7656,9.375 78.5156,28.125 18.9453,18.55469 28.5156,40.91797 28.5156,67.1875 0,22.16797 -8.0078,44.53125 -23.8281,67.1875 -15.9179,22.46094 -47.4609,52.53907 -94.5312,90.234379 -24.8047,19.824219 -41.3086,36.914063 -49.6094,51.171875 h 168.75 z m 0,0"
       style="fill:#000000;fill-opacity:1;fill-rule:nonzero;stroke:none"
       aria-label="厚さ/2"
       transform="matrix(0.04,0,0,0.04,250.52,541.77333)"
       clip-path="url(#clipPath13)" />
  </g>
</svg>
