<?xml version="1.0" encoding="UTF-8" standalone="no"?>
<!-- Created with Inkscape (http://www.inkscape.org/) -->

<svg
   version="1.1"
   id="svg1"
   width="179.31998"
   height="219.15289"
   viewBox="0 0 179.31998 219.15289"
   xmlns="http://www.w3.org/2000/svg"
   xmlns:svg="http://www.w3.org/2000/svg">
  <defs
     id="defs1">
    <clipPath
       clipPathUnits="userSpaceOnUse"
       id="clipPath9">
      <path
         d="M 1091,0 H 20399 V 9729 H 1091 V 0"
         transform="translate(-8.3333334e-6)"
         id="path9" />
    </clipPath>
    <clipPath
       clipPathUnits="userSpaceOnUse"
       id="clipPath11">
      <path
         d="M 1091,0 H 20399 V 9729 H 1091 V 0"
         transform="translate(-8.3333334e-6)"
         id="path11" />
    </clipPath>
    <clipPath
       clipPathUnits="userSpaceOnUse"
       id="clipPath12">
      <path
         d="M 1091,0 H 20399 V 9729 H 1091 V 0"
         transform="matrix(1,0,0,-1,-9585.0001,5156)"
         id="path12" />
    </clipPath>
    <clipPath
       clipPathUnits="userSpaceOnUse"
       id="clipPath14">
      <path
         d="M 1091,0 H 20399 V 9729 H 1091 V 0"
         transform="translate(-8.3333334e-6)"
         id="path14" />
    </clipPath>
    <clipPath
       clipPathUnits="userSpaceOnUse"
       id="clipPath16">
      <path
         d="M 1091,0 H 20399 V 9729 H 1091 V 0"
         transform="translate(-8.3333334e-6)"
         id="path16" />
    </clipPath>
    <clipPath
       clipPathUnits="userSpaceOnUse"
       id="clipPath18">
      <path
         d="M 1091,0 H 20399 V 9729 H 1091 V 0"
         transform="translate(-8.3333334e-6)"
         id="path18" />
    </clipPath>
    <clipPath
       clipPathUnits="userSpaceOnUse"
       id="clipPath20">
      <path
         d="M 1091,0 H 20399 V 9729 H 1091 V 0"
         transform="translate(-8.3333334e-6)"
         id="path20" />
    </clipPath>
    <clipPath
       clipPathUnits="userSpaceOnUse"
       id="clipPath22">
      <path
         d="M 1091,0 H 20399 V 9729 H 1091 V 0"
         transform="translate(-8.3333334e-6)"
         id="path22" />
    </clipPath>
    <clipPath
       clipPathUnits="userSpaceOnUse"
       id="clipPath23">
      <path
         d="M 1091,0 H 20399 V 9729 H 1091 V 0"
         transform="matrix(0,1,1,0,-3497,-7662.0001)"
         id="path23" />
    </clipPath>
    <clipPath
       clipPathUnits="userSpaceOnUse"
       id="clipPath25">
      <path
         d="M 1091,0 H 20399 V 9729 H 1091 V 0"
         transform="translate(-8.3333334e-6)"
         id="path25" />
    </clipPath>
    <clipPath
       clipPathUnits="userSpaceOnUse"
       id="clipPath27">
      <path
         d="M 1091,0 H 20399 V 9729 H 1091 V 0"
         transform="translate(-8.3333334e-6)"
         id="path27" />
    </clipPath>
    <clipPath
       clipPathUnits="userSpaceOnUse"
       id="clipPath29">
      <path
         d="M 1091,0 H 20399 V 9729 H 1091 V 0"
         transform="translate(-8.3333334e-6)"
         id="path29" />
    </clipPath>
    <clipPath
       clipPathUnits="userSpaceOnUse"
       id="clipPath31">
      <path
         d="M 1091,0 H 20399 V 9729 H 1091 V 0"
         transform="translate(-8.3333334e-6)"
         id="path31" />
    </clipPath>
    <clipPath
       clipPathUnits="userSpaceOnUse"
       id="clipPath33">
      <path
         d="M 1091,0 H 20399 V 9729 H 1091 V 0"
         transform="translate(-8.3333334e-6)"
         id="path33" />
    </clipPath>
    <clipPath
       clipPathUnits="userSpaceOnUse"
       id="clipPath34">
      <path
         d="M 1091,0 H 20399 V 9729 H 1091 V 0"
         transform="matrix(1,0,0,-1,-9585.0001,262)"
         id="path34" />
    </clipPath>
    <clipPath
       clipPathUnits="userSpaceOnUse"
       id="clipPath36">
      <path
         d="M 1091,0 H 20399 V 9729 H 1091 V 0"
         transform="translate(-8.3333334e-6)"
         id="path36" />
    </clipPath>
    <clipPath
       clipPathUnits="userSpaceOnUse"
       id="clipPath38">
      <path
         d="M 1091,0 H 20399 V 9729 H 1091 V 0"
         transform="translate(-8.3333334e-6)"
         id="path38" />
    </clipPath>
    <clipPath
       clipPathUnits="userSpaceOnUse"
       id="clipPath40">
      <path
         d="M 1091,0 H 20399 V 9729 H 1091 V 0"
         transform="translate(-8.3333334e-6)"
         id="path40" />
    </clipPath>
    <clipPath
       clipPathUnits="userSpaceOnUse"
       id="clipPath42">
      <path
         d="M 1091,0 H 20399 V 9729 H 1091 V 0"
         transform="translate(-8.3333334e-6)"
         id="path42" />
    </clipPath>
    <clipPath
       clipPathUnits="userSpaceOnUse"
       id="clipPath43">
      <path
         d="M 1091,0 H 20399 V 9729 H 1091 V 0"
         transform="matrix(0,1,1,0,-917,-7883.0001)"
         id="path43" />
    </clipPath>
    <clipPath
       clipPathUnits="userSpaceOnUse"
       id="clipPath45">
      <path
         d="M 1091,0 H 20399 V 9729 H 1091 V 0"
         transform="translate(-8.3333334e-6)"
         id="path45" />
    </clipPath>
    <clipPath
       clipPathUnits="userSpaceOnUse"
       id="clipPath47">
      <path
         d="M 1091,0 H 20399 V 9729 H 1091 V 0"
         transform="translate(-8.3333334e-6)"
         id="path47" />
    </clipPath>
    <clipPath
       clipPathUnits="userSpaceOnUse"
       id="clipPath49">
      <path
         d="M 1091,0 H 20399 V 9729 H 1091 V 0"
         transform="translate(-8.3333334e-6)"
         id="path49" />
    </clipPath>
    <clipPath
       clipPathUnits="userSpaceOnUse"
       id="clipPath51">
      <path
         d="M 1091,0 H 20399 V 9729 H 1091 V 0"
         transform="translate(-8.3333334e-6)"
         id="path51" />
    </clipPath>
    <clipPath
       clipPathUnits="userSpaceOnUse"
       id="clipPath53">
      <path
         d="M 1091,0 H 20399 V 9729 H 1091 V 0"
         transform="translate(-8.3333334e-6)"
         id="path53" />
    </clipPath>
    <clipPath
       clipPathUnits="userSpaceOnUse"
       id="clipPath55">
      <path
         d="M 1091,0 H 20399 V 9729 H 1091 V 0"
         transform="translate(-8.3333334e-6)"
         id="path55" />
    </clipPath>
    <clipPath
       clipPathUnits="userSpaceOnUse"
       id="clipPath57">
      <path
         d="M 1091,0 H 20399 V 9729 H 1091 V 0"
         transform="translate(-8.3333334e-6)"
         id="path57" />
    </clipPath>
    <clipPath
       clipPathUnits="userSpaceOnUse"
       id="clipPath58">
      <path
         d="M 1091,0 H 20399 V 9729 H 1091 V 0"
         transform="matrix(0,1,1,0,-1426,-11525)"
         id="path58" />
    </clipPath>
    <clipPath
       clipPathUnits="userSpaceOnUse"
       id="clipPath60">
      <path
         d="M 1091,0 H 20399 V 9729 H 1091 V 0"
         transform="translate(-8.3333334e-6)"
         id="path60" />
    </clipPath>
    <clipPath
       clipPathUnits="userSpaceOnUse"
       id="clipPath62">
      <path
         d="M 1091,0 H 20399 V 9729 H 1091 V 0"
         transform="translate(-8.3333334e-6)"
         id="path62" />
    </clipPath>
    <clipPath
       clipPathUnits="userSpaceOnUse"
       id="clipPath64">
      <path
         d="M 1091,0 H 20399 V 9729 H 1091 V 0"
         transform="translate(-8.3333334e-6)"
         id="path64" />
    </clipPath>
    <clipPath
       clipPathUnits="userSpaceOnUse"
       id="clipPath66">
      <path
         d="M 1091,0 H 20399 V 9729 H 1091 V 0"
         transform="translate(-8.3333334e-6)"
         id="path66" />
    </clipPath>
    <clipPath
       clipPathUnits="userSpaceOnUse"
       id="clipPath68">
      <path
         d="M 1091,0 H 20399 V 9729 H 1091 V 0"
         transform="translate(-8.3333334e-6)"
         id="path68" />
    </clipPath>
    <clipPath
       clipPathUnits="userSpaceOnUse"
       id="clipPath70">
      <path
         d="M 1091,0 H 20399 V 9729 H 1091 V 0"
         transform="translate(-8.3333334e-6)"
         id="path70" />
    </clipPath>
    <clipPath
       clipPathUnits="userSpaceOnUse"
       id="clipPath72">
      <path
         d="M 1091,0 H 20399 V 9729 H 1091 V 0"
         transform="translate(-8.3333334e-6)"
         id="path72" />
    </clipPath>
    <clipPath
       clipPathUnits="userSpaceOnUse"
       id="clipPath73">
      <path
         d="M 1091,0 H 20399 V 9729 H 1091 V 0"
         transform="matrix(1,0,0,-1,-8807.0001,2822)"
         id="path73" />
    </clipPath>
  </defs>
  <g
     id="layer-oc1"
     transform="translate(-310.06667,-773.3271)">
    <path
       id="path1"
       d="M 8123,4922 V 2548 h -207 v 2374 h 207 3405 V 2548 H 8123 v 2374"
       style="fill:none;stroke:#000000;stroke-width:24;stroke-linecap:round;stroke-linejoin:round;stroke-miterlimit:10;stroke-dasharray:none;stroke-opacity:1"
       transform="matrix(0.04,0,0,-0.04,18.666667,992)" />
    <path
       id="path2"
       d="m 11528,4922 h 207 V 2548 h -207 v 2374"
       style="fill:none;stroke:#000000;stroke-width:24;stroke-linecap:round;stroke-linejoin:round;stroke-miterlimit:10;stroke-dasharray:none;stroke-opacity:1"
       transform="matrix(0.04,0,0,-0.04,18.666667,992)" />
    <path
       id="path3"
       d="m 8123,2548 h 3405 V 2342 H 8123 v 206"
       style="fill:none;stroke:#000000;stroke-width:24;stroke-linecap:round;stroke-linejoin:round;stroke-miterlimit:10;stroke-dasharray:none;stroke-opacity:1"
       transform="matrix(0.04,0,0,-0.04,18.666667,992)" />
    <path
       id="path4"
       d="m 8123,0 v 2342 h 3405 V 0"
       style="fill:none;stroke:#000000;stroke-width:24;stroke-linecap:round;stroke-linejoin:round;stroke-miterlimit:10;stroke-dasharray:none;stroke-opacity:1"
       transform="matrix(0.04,0,0,-0.04,18.666667,992)" />
    <path
       id="path5"
       d="m 7916,4999 v 231"
       style="fill:none;stroke:#000000;stroke-width:24;stroke-linecap:round;stroke-linejoin:round;stroke-miterlimit:10;stroke-dasharray:none;stroke-opacity:1"
       transform="matrix(0.04,0,0,-0.04,18.666667,992)" />
    <path
       id="path6"
       d="m 11735,4999 v 231"
       style="fill:none;stroke:#000000;stroke-width:24;stroke-linecap:round;stroke-linejoin:round;stroke-miterlimit:10;stroke-dasharray:none;stroke-opacity:1"
       transform="matrix(0.04,0,0,-0.04,18.666667,992)" />
    <path
       id="path7"
       d="m 8226,5075 h 3199"
       style="fill:none;stroke:#000000;stroke-width:24;stroke-linecap:round;stroke-linejoin:round;stroke-miterlimit:10;stroke-dasharray:none;stroke-opacity:1"
       transform="matrix(0.04,0,0,-0.04,18.666667,992)" />
    <path
       id="path8"
       d="m 8226,5126 v -103 l -310,52 z"
       style="fill:#000000;fill-opacity:1;fill-rule:nonzero;stroke:#000000;stroke-width:1;stroke-linecap:round;stroke-linejoin:miter;stroke-miterlimit:10;stroke-dasharray:none;stroke-opacity:1"
       transform="matrix(0.04,0,0,-0.04,18.666667,992)"
       clip-path="url(#clipPath9)" />
    <path
       id="path10"
       d="m 11425,5126 v -103 l 310,52 z"
       style="fill:#000000;fill-opacity:1;fill-rule:nonzero;stroke:#000000;stroke-width:1;stroke-linecap:round;stroke-linejoin:miter;stroke-miterlimit:10;stroke-dasharray:none;stroke-opacity:1"
       transform="matrix(0.04,0,0,-0.04,18.666667,992)"
       clip-path="url(#clipPath11)" />
    <text
       id="text11"
       xml:space="preserve"
       transform="matrix(0.04,0,0,0.04,402.06667,785.76)"
       clip-path="url(#clipPath12)"><tspan
         id="tspan11"
         style="font-variant:normal;font-weight:normal;font-size:432.45px;font-family:Arial;writing-mode:lr-tb;fill:#000000;fill-opacity:1;fill-rule:nonzero;stroke:none"
         x="0"
         y="0">37</tspan></text>
    <path
       id="path13"
       d="M 7839,4922 H 7589"
       style="fill:none;stroke:#000000;stroke-width:24;stroke-linecap:round;stroke-linejoin:round;stroke-miterlimit:10;stroke-dasharray:none;stroke-opacity:1"
       transform="matrix(0.04,0,0,-0.04,18.666667,992)"
       clip-path="url(#clipPath14)" />
    <path
       id="path15"
       d="M 7839,2548 H 7589"
       style="fill:none;stroke:#000000;stroke-width:24;stroke-linecap:round;stroke-linejoin:round;stroke-miterlimit:10;stroke-dasharray:none;stroke-opacity:1"
       transform="matrix(0.04,0,0,-0.04,18.666667,992)"
       clip-path="url(#clipPath16)" />
    <path
       id="path17"
       d="M 7744,4612 V 2858"
       style="fill:none;stroke:#000000;stroke-width:24;stroke-linecap:round;stroke-linejoin:round;stroke-miterlimit:10;stroke-dasharray:none;stroke-opacity:1"
       transform="matrix(0.04,0,0,-0.04,18.666667,992)"
       clip-path="url(#clipPath18)" />
    <path
       id="path19"
       d="m 7692,4612 h 103 l -51,310 z"
       style="fill:#000000;fill-opacity:1;fill-rule:nonzero;stroke:#000000;stroke-width:1;stroke-linecap:round;stroke-linejoin:miter;stroke-miterlimit:10;stroke-dasharray:none;stroke-opacity:1"
       transform="matrix(0.04,0,0,-0.04,18.666667,992)"
       clip-path="url(#clipPath20)" />
    <path
       id="path21"
       d="m 7692,2858 h 103 l -51,-310 z"
       style="fill:#000000;fill-opacity:1;fill-rule:nonzero;stroke:#000000;stroke-width:1;stroke-linecap:round;stroke-linejoin:miter;stroke-miterlimit:10;stroke-dasharray:none;stroke-opacity:1"
       transform="matrix(0.04,0,0,-0.04,18.666667,992)"
       clip-path="url(#clipPath22)" />
    <text
       id="text22"
       xml:space="preserve"
       transform="matrix(0,-0.04,0.04,0,325.14667,852.12)"
       clip-path="url(#clipPath23)"><tspan
         id="tspan22"
         style="font-variant:normal;font-weight:normal;font-size:432.45px;font-family:Arial;writing-mode:lr-tb;fill:#000000;fill-opacity:1;fill-rule:nonzero;stroke:none"
         x="0"
         y="0">23</tspan></text>
    <path
       id="path24"
       d="M 11528,46 V 336"
       style="fill:none;stroke:#000000;stroke-width:24;stroke-linecap:round;stroke-linejoin:round;stroke-miterlimit:10;stroke-dasharray:none;stroke-opacity:1"
       transform="matrix(0.04,0,0,-0.04,18.666667,992)"
       clip-path="url(#clipPath25)" />
    <path
       id="path26"
       d="M 8123,46 V 336"
       style="fill:none;stroke:#000000;stroke-width:24;stroke-linecap:round;stroke-linejoin:round;stroke-miterlimit:10;stroke-dasharray:none;stroke-opacity:1"
       transform="matrix(0.04,0,0,-0.04,18.666667,992)"
       clip-path="url(#clipPath27)" />
    <path
       id="path28"
       d="M 11219,181 H 8432"
       style="fill:none;stroke:#000000;stroke-width:24;stroke-linecap:round;stroke-linejoin:round;stroke-miterlimit:10;stroke-dasharray:none;stroke-opacity:1"
       transform="matrix(0.04,0,0,-0.04,18.666667,992)"
       clip-path="url(#clipPath29)" />
    <path
       id="path30"
       d="M 11219,232 V 129 l 309,52 z"
       style="fill:#000000;fill-opacity:1;fill-rule:nonzero;stroke:#000000;stroke-width:1;stroke-linecap:round;stroke-linejoin:miter;stroke-miterlimit:10;stroke-dasharray:none;stroke-opacity:1"
       transform="matrix(0.04,0,0,-0.04,18.666667,992)"
       clip-path="url(#clipPath31)" />
    <path
       id="path32"
       d="M 8432,232 V 129 l -309,52 z"
       style="fill:#000000;fill-opacity:1;fill-rule:nonzero;stroke:#000000;stroke-width:1;stroke-linecap:round;stroke-linejoin:miter;stroke-miterlimit:10;stroke-dasharray:none;stroke-opacity:1"
       transform="matrix(0.04,0,0,-0.04,18.666667,992)"
       clip-path="url(#clipPath33)" />
    <text
       id="text33"
       xml:space="preserve"
       transform="matrix(0.04,0,0,0.04,402.06667,981.52)"
       clip-path="url(#clipPath34)"><tspan
         id="tspan33"
         style="font-variant:normal;font-weight:normal;font-size:432.45px;font-family:Arial;writing-mode:lr-tb;fill:#000000;fill-opacity:1;fill-rule:nonzero;stroke:none"
         x="0"
         y="0">33</tspan></text>
    <path
       id="path35"
       d="M 8045,2342 H 7809"
       style="fill:none;stroke:#000000;stroke-width:24;stroke-linecap:round;stroke-linejoin:round;stroke-miterlimit:10;stroke-dasharray:none;stroke-opacity:1"
       transform="matrix(0.04,0,0,-0.04,18.666667,992)"
       clip-path="url(#clipPath36)" />
    <path
       id="path37"
       d="M 7964,278 V 2032"
       style="fill:none;stroke:#000000;stroke-width:24;stroke-linecap:round;stroke-linejoin:round;stroke-miterlimit:10;stroke-dasharray:none;stroke-opacity:1"
       transform="matrix(0.04,0,0,-0.04,18.666667,992)"
       clip-path="url(#clipPath38)" />
    <path
       id="path39"
       d="m 7969,0 47,278 -57,-278 z m 47,278 -57,-278 -46,278 z"
       style="fill:#000000;fill-opacity:1;fill-rule:nonzero;stroke:#000000;stroke-width:1;stroke-linecap:round;stroke-linejoin:miter;stroke-miterlimit:10;stroke-dasharray:none;stroke-opacity:1"
       transform="matrix(0.04,0,0,-0.04,18.666667,992)"
       clip-path="url(#clipPath40)" />
    <path
       id="path41"
       d="m 7913,2032 h 103 l -52,310 z"
       style="fill:#000000;fill-opacity:1;fill-rule:nonzero;stroke:#000000;stroke-width:1;stroke-linecap:round;stroke-linejoin:miter;stroke-miterlimit:10;stroke-dasharray:none;stroke-opacity:1"
       transform="matrix(0.04,0,0,-0.04,18.666667,992)"
       clip-path="url(#clipPath42)" />
    <text
       id="text42"
       xml:space="preserve"
       transform="matrix(0,-0.04,0.04,0,333.98667,955.32)"
       clip-path="url(#clipPath43)"><tspan
         id="tspan42"
         style="font-variant:normal;font-weight:normal;font-size:432.45px;font-family:Arial;writing-mode:lr-tb;fill:#000000;fill-opacity:1;fill-rule:nonzero;stroke:none"
         x="0"
         y="0">23</tspan></text>
    <path
       id="path44"
       d="m 11606,2548 h 150"
       style="fill:none;stroke:#000000;stroke-width:24;stroke-linecap:round;stroke-linejoin:round;stroke-miterlimit:10;stroke-dasharray:none;stroke-opacity:1"
       transform="matrix(0.04,0,0,-0.04,18.666667,992)"
       clip-path="url(#clipPath45)" />
    <path
       id="path46"
       d="m 11606,2342 h 150"
       style="fill:none;stroke:#000000;stroke-width:24;stroke-linecap:round;stroke-linejoin:round;stroke-miterlimit:10;stroke-dasharray:none;stroke-opacity:1"
       transform="matrix(0.04,0,0,-0.04,18.666667,992)"
       clip-path="url(#clipPath47)" />
    <path
       id="path48"
       d="m 11602,2858 v 309"
       style="fill:none;stroke:#000000;stroke-width:24;stroke-linecap:round;stroke-linejoin:round;stroke-miterlimit:10;stroke-dasharray:none;stroke-opacity:1"
       transform="matrix(0.04,0,0,-0.04,18.666667,992)"
       clip-path="url(#clipPath49)" />
    <path
       id="path50"
       d="M 11602,2032 V 1361"
       style="fill:none;stroke:#000000;stroke-width:24;stroke-linecap:round;stroke-linejoin:round;stroke-miterlimit:10;stroke-dasharray:none;stroke-opacity:1"
       transform="matrix(0.04,0,0,-0.04,18.666667,992)"
       clip-path="url(#clipPath51)" />
    <path
       id="path52"
       d="M 11602,2548 V 2342"
       style="fill:none;stroke:#000000;stroke-width:24;stroke-linecap:round;stroke-linejoin:round;stroke-miterlimit:10;stroke-dasharray:none;stroke-opacity:1"
       transform="matrix(0.04,0,0,-0.04,18.666667,992)"
       clip-path="url(#clipPath53)" />
    <path
       id="path54"
       d="m 11550,2858 h 103 l -51,-310 z"
       style="fill:#000000;fill-opacity:1;fill-rule:nonzero;stroke:#000000;stroke-width:1;stroke-linecap:round;stroke-linejoin:miter;stroke-miterlimit:10;stroke-dasharray:none;stroke-opacity:1"
       transform="matrix(0.04,0,0,-0.04,18.666667,992)"
       clip-path="url(#clipPath55)" />
    <path
       id="path56"
       d="m 11550,2032 h 103 l -51,310 z"
       style="fill:#000000;fill-opacity:1;fill-rule:nonzero;stroke:#000000;stroke-width:1;stroke-linecap:round;stroke-linejoin:miter;stroke-miterlimit:10;stroke-dasharray:none;stroke-opacity:1"
       transform="matrix(0.04,0,0,-0.04,18.666667,992)"
       clip-path="url(#clipPath57)" />
    <text
       id="text57"
       xml:space="preserve"
       transform="matrix(0,-0.04,0.04,0,479.66667,934.96)"
       clip-path="url(#clipPath58)"><tspan
         id="tspan57"
         style="font-variant:normal;font-weight:normal;font-size:432.45px;font-family:Arial;writing-mode:lr-tb;fill:#000000;fill-opacity:1;fill-rule:nonzero;stroke:none"
         x="0"
         y="0">2</tspan></text>
    <path
       id="path59"
       d="m 7916,2626 v 274"
       style="fill:none;stroke:#000000;stroke-width:24;stroke-linecap:round;stroke-linejoin:round;stroke-miterlimit:10;stroke-dasharray:none;stroke-opacity:1"
       transform="matrix(0.04,0,0,-0.04,18.666667,992)"
       clip-path="url(#clipPath60)" />
    <path
       id="path61"
       d="m 8123,2626 v 274"
       style="fill:none;stroke:#000000;stroke-width:24;stroke-linecap:round;stroke-linejoin:round;stroke-miterlimit:10;stroke-dasharray:none;stroke-opacity:1"
       transform="matrix(0.04,0,0,-0.04,18.666667,992)"
       clip-path="url(#clipPath62)" />
    <path
       id="path63"
       d="M 7607,2745 H 7297"
       style="fill:none;stroke:#000000;stroke-width:24;stroke-linecap:round;stroke-linejoin:round;stroke-miterlimit:10;stroke-dasharray:none;stroke-opacity:1"
       transform="matrix(0.04,0,0,-0.04,18.666667,992)"
       clip-path="url(#clipPath64)" />
    <path
       id="path65"
       d="m 8432,2745 h 672"
       style="fill:none;stroke:#000000;stroke-width:24;stroke-linecap:round;stroke-linejoin:round;stroke-miterlimit:10;stroke-dasharray:none;stroke-opacity:1"
       transform="matrix(0.04,0,0,-0.04,18.666667,992)"
       clip-path="url(#clipPath66)" />
    <path
       id="path67"
       d="m 7916,2745 h 207"
       style="fill:none;stroke:#000000;stroke-width:24;stroke-linecap:round;stroke-linejoin:round;stroke-miterlimit:10;stroke-dasharray:none;stroke-opacity:1"
       transform="matrix(0.04,0,0,-0.04,18.666667,992)"
       clip-path="url(#clipPath68)" />
    <path
       id="path69"
       d="m 7607,2797 v -103 l 309,51 z"
       style="fill:#000000;fill-opacity:1;fill-rule:nonzero;stroke:#000000;stroke-width:1;stroke-linecap:round;stroke-linejoin:miter;stroke-miterlimit:10;stroke-dasharray:none;stroke-opacity:1"
       transform="matrix(0.04,0,0,-0.04,18.666667,992)"
       clip-path="url(#clipPath70)" />
    <path
       id="path71"
       d="m 8432,2797 v -103 l -309,51 z"
       style="fill:#000000;fill-opacity:1;fill-rule:nonzero;stroke:#000000;stroke-width:1;stroke-linecap:round;stroke-linejoin:miter;stroke-miterlimit:10;stroke-dasharray:none;stroke-opacity:1"
       transform="matrix(0.04,0,0,-0.04,18.666667,992)"
       clip-path="url(#clipPath72)" />
    <text
       id="text72"
       xml:space="preserve"
       transform="matrix(0.04,0,0,0.04,370.94667,879.12)"
       clip-path="url(#clipPath73)"><tspan
         id="tspan72"
         style="font-variant:normal;font-weight:normal;font-size:432.45px;font-family:Arial;writing-mode:lr-tb;fill:#000000;fill-opacity:1;fill-rule:nonzero;stroke:none"
         x="0"
         y="0">2</tspan></text>
  </g>
</svg>
